<?xml version="1.0" encoding="UTF-8"?>
<svg width="26px" height="25px" viewBox="0 0 26 25" version="1.1" xmlns="http://www.w3.org/2000/svg" xmlns:xlink="http://www.w3.org/1999/xlink">
    <!-- Generator: Sketch 46.2 (44496) - http://www.bohemiancoding.com/sketch -->
    <title>icon-search</title>
    <desc>Created with Sketch.</desc>
    <defs></defs>
    <g id="lily-desktop-web-screens-RD4---Search-Updates" stroke="none" stroke-width="1" fill="none" fill-rule="evenodd">
        <g id="desktop-web-notifications" transform="translate(-590.000000, -27.000000)" fill-rule="nonzero" fill="#403F4C">
            <g id="header-navigation">
                <g id="input-search" transform="translate(24.000000, 16.000000)">
                    <g id="icon-search" transform="translate(566.000000, 11.000000)">
                        <path d="M4.18724724,4.13511123 C3.93758425,4.33867159 3.93758425,4.64351644 4.18724724,4.84708188 C4.43691022,5.05064733 4.81079674,5.05064224 5.06046595,4.84708188 C8.05400238,2.40633015 12.9486789,2.40633015 15.9407811,4.84708188 C16.0650047,4.94836637 16.220892,5 16.376767,5 C16.5326419,5 16.6885417,4.94935776 16.8127528,4.84708188 C17.0624157,4.64352152 17.0624157,4.33867667 16.8127528,4.13511123 C13.3526766,1.28829626 7.67868794,1.28829626 4.18712253,4.13511123 L4.18724724,4.13511123 Z" id="Shape"></path>
                        <path d="M25.4595462,21.9990915 L21.9852051,18.6748041 C21.4674362,18.1793972 20.6746941,18.0336207 20.0045686,18.295552 C20.0045686,18.295552 20.0045686,18.2659418 19.9736219,18.2659418 L18.2976987,16.6624003 C21.9542584,12.7264346 21.8019017,6.6915789 17.8715877,2.92967042 C13.7890388,-0.976556806 7.14598405,-0.976556806 3.06191164,2.92967042 C-1.02063721,6.83589764 -1.02063721,13.1920448 3.06191164,17.0997298 C5.10324701,19.0529017 7.78496785,20.0152599 10.4667496,20.0152599 C12.965155,20.0152599 15.4338812,19.1702226 17.4145177,17.4789819 L19.059482,19.0529017 C18.6631109,19.7237069 18.7547687,20.5687441 19.3641953,21.1518501 L22.8373175,24.4749713 C23.2027297,24.8246017 23.6597997,25 24.1168696,25 C24.5739396,25 25.0619684,24.8246134 25.3964218,24.4749713 C26.1903523,23.7768477 26.1903523,22.668713 25.4595066,21.9990449 L25.4595462,21.9990915 Z M3.97725822,16.2546226 C0.381336512,12.8151717 0.381336512,7.21647928 3.97725822,3.74758157 C5.77457917,2.0278853 8.15152577,1.15322627 10.4975135,1.15322627 C12.874521,1.15322627 15.2205697,2.0278853 17.0177688,3.74758157 C20.6444665,7.21647928 20.6444665,12.8154633 17.0487155,16.2546226 C13.4527938,19.7246865 7.57274113,19.7246865 3.97712414,16.2546226 L3.97725822,16.2546226 Z M24.6060442,23.6606521 C24.3620359,23.8941219 23.9966176,23.8941219 23.7526032,23.6606521 L20.2794809,20.3363647 C20.0354726,20.1028949 20.0354726,19.7532587 20.2794809,19.519783 C20.4008909,19.4036167 20.5532476,19.3443964 20.705592,19.3443964 C20.8579365,19.3443964 21.0103053,19.4024796 21.1317031,19.519783 L24.6060442,22.8146236 C24.8500525,23.0480934 24.8500525,23.4273514 24.6060442,23.6607979 L24.6060442,23.6606521 Z" id="Shape"></path>
                    </g>
                </g>
            </g>
        </g>
    </g>
</svg>